HIERARCHY
ROOT joint_Root
{
	OFFSET 0.0 0.0 0.0
	CHANNELS 6 Xposition Yposition Zposition Zrotation Xrotation Yrotation 
	JOINT Hips
	{
		OFFSET -17.1583 93.1646 452.98
		CHANNELS 6 Xposition Yposition Zposition Zrotation Xrotation Yrotation 
		JOINT Spine
		{
			OFFSET 15.7357 0.0 0.0
			CHANNELS 6 Xposition Yposition Zposition Zrotation Xrotation Yrotation 
			JOINT Chest
			{
				OFFSET 8.98455 -0.406207 0.0
				CHANNELS 6 Xposition Yposition Zposition Zrotation Xrotation Yrotation 
				JOINT Neck
				{
					OFFSET 16.3773 0.0 0.0
					CHANNELS 6 Xposition Yposition Zposition Zrotation Xrotation Yrotation 
					JOINT Head
					{
						OFFSET 6.45672 0.0 0.0
						CHANNELS 6 Xposition Yposition Zposition Zrotation Xrotation Yrotation 
						End Site
						{
							OFFSET 0.0 0.0 0.0
						}
					}
				}
				JOINT Shoulder_L
				{
					OFFSET 12.9942 -0.242716 4.98039
					CHANNELS 6 Xposition Yposition Zposition Zrotation Xrotation Yrotation 
					JOINT UpperArm_L
					{
						OFFSET 5.34809 0.0 0.0
						CHANNELS 6 Xposition Yposition Zposition Zrotation Xrotation Yrotation 
						JOINT LowerArm_L
						{
							OFFSET 24.3286 1.87007e-05 0.0
							CHANNELS 6 Xposition Yposition Zposition Zrotation Xrotation Yrotation 
							JOINT Hand_L
							{
								OFFSET 22.2916 0.0 0.0
								CHANNELS 6 Xposition Yposition Zposition Zrotation Xrotation Yrotation 
								End Site
								{
									OFFSET 0.0 0.0 0.0
								}
							}
						}
					}
				}
				JOINT Shoulder_R
				{
					OFFSET 12.9945 -0.242716 -4.98039
					CHANNELS 6 Xposition Yposition Zposition Zrotation Xrotation Yrotation 
					JOINT UpperArm_R
					{
						OFFSET -5.34813 0.0 0.0
						CHANNELS 6 Xposition Yposition Zposition Zrotation Xrotation Yrotation 
						JOINT LowerArm_R
						{
							OFFSET -24.3289 0.000322201 0.0
							CHANNELS 6 Xposition Yposition Zposition Zrotation Xrotation Yrotation 
							JOINT Hand_R
							{
								OFFSET -22.2915 -0.000108084 0.0
								CHANNELS 6 Xposition Yposition Zposition Zrotation Xrotation Yrotation 
								End Site
								{
									OFFSET 0.0 0.0 0.0
								}
							}
						}
					}
				}
			}
		}
		JOINT UpperLeg_L
		{
			OFFSET -2.19248 -6.46944 0.0
			CHANNELS 6 Xposition Yposition Zposition Zrotation Xrotation Yrotation 
			JOINT LowerLeg_L
			{
				OFFSET 39.0811 0.0 -1.23785e-05
				CHANNELS 6 Xposition Yposition Zposition Zrotation Xrotation Yrotation 
				JOINT Foot_L
				{
					OFFSET 40.9854 0.0 -1.26872e-05
					CHANNELS 6 Xposition Yposition Zposition Zrotation Xrotation Yrotation 
					JOINT Toes_L
					{
						OFFSET 11.7543 0.0 0.0
						CHANNELS 6 Xposition Yposition Zposition Zrotation Xrotation Yrotation 
						End Site
						{
							OFFSET 0.0 0.0 0.0
						}
					}
				}
			}
		}
		JOINT UpperLeg_R
		{
			OFFSET -2.19251 6.46944 0.0
			CHANNELS 6 Xposition Yposition Zposition Zrotation Xrotation Yrotation 
			JOINT LowerLeg_R
			{
				OFFSET -39.0811 -0.00228153 -0.0401928
				CHANNELS 6 Xposition Yposition Zposition Zrotation Xrotation Yrotation 
				JOINT Foot_R
				{
					OFFSET -40.9854 0.0 0.0
					CHANNELS 6 Xposition Yposition Zposition Zrotation Xrotation Yrotation 
					JOINT Toes_R
					{
						OFFSET -11.7543 0.0 0.0
						CHANNELS 6 Xposition Yposition Zposition Zrotation Xrotation Yrotation 
						End Site
						{
							OFFSET 0.0 0.0 0.0
						}
					}
				}
			}
		}
	}
}
MOTION
Frames:	6
Frame Time:	0.0333333
0.000000 0.000000 0.000000 0.000000 0.000000 -0.000000 -2.882980 91.785400 0.117604 86.047000 1.107520 7.363320 15.735700 0.000005 -0.000001 90.943300 85.977500 -88.622400 8.984550 -0.406207 -0.000000 0.282466 -0.019056 4.638510 16.377300 -0.000001 -0.000001 10.822700 0.733089 -13.413000 6.456720 -0.000001 -0.000000 -7.558700 0.986445 -22.789600 12.994200 -0.242716 4.980390 -93.441300 8.706530 -68.334200 5.348090 -0.000007 -0.000001 -74.374300 0.591942 -12.034700 24.328600 0.000019 0.000005 35.551900 -37.948800 -130.712000 22.291600 -0.000001 0.000005 42.025700 5.103150 5.041090 12.994500 -0.242716 -4.980390 87.756300 6.110420 -69.792700 -5.348130 -0.000001 -0.000004 -67.866400 32.610900 -6.236310 -24.328900 0.000322 -0.000009 1.033020 3.606400 -16.011100 -22.291500 -0.000108 -0.000004 -2.158640 5.294120 0.236718 -2.192480 -6.469440 -0.000000 -175.718000 3.703340 0.204091 39.081100 -0.000007 -0.000012 0.367183 -0.702459 27.597400 40.985400 -0.000006 -0.000013 1.332030 4.570480 -76.327300 11.754300 -0.000000 0.000003 -0.000351 0.173338 -9.546010 -2.192510 6.469440 -0.000001 -172.482000 8.396660 -173.304000 -39.081100 -0.002282 -0.040193 0.165009 -0.529150 16.990800 -40.985400 0.000008 0.000006 5.239090 0.659921 -72.691100 -11.754300 -0.000006 -0.000006 -0.011393 0.281434 -5.136520
0.000000 0.000000 0.000000 0.000000 0.000000 -0.000000 -2.911610 91.794500 0.099871 86.081400 1.085790 7.352940 15.735700 0.000005 -0.000001 90.733900 85.964000 -88.421900 8.984550 -0.406207 -0.000000 0.310515 -0.046956 4.620920 16.377300 -0.000001 -0.000001 10.883200 0.735684 -13.433500 6.456720 -0.000001 -0.000000 -7.540470 1.061040 -22.825000 12.994200 -0.242716 4.980390 -93.424800 8.659040 -68.322400 5.348090 -0.000007 -0.000001 -74.373900 0.543561 -12.127700 24.328600 0.000019 0.000005 35.824900 -38.060000 -130.497000 22.291600 -0.000001 0.000005 42.149700 5.088730 5.370690 12.994500 -0.242716 -4.980390 87.764800 6.095050 -69.816200 -5.348130 -0.000001 -0.000004 -68.004800 32.774100 -6.181840 -24.328900 0.000322 -0.000009 1.032410 3.577060 -16.126300 -22.291500 -0.000108 -0.000004 -2.157680 5.292910 0.270465 -2.192480 -6.469440 -0.000000 -175.721000 3.638380 0.217870 39.081100 -0.000007 -0.000012 0.367841 -0.705556 27.536100 40.985400 -0.000006 -0.000013 1.323940 4.626240 -76.328500 11.754300 -0.000000 0.000003 -0.000469 0.175181 -9.471120 -2.192510 6.469440 -0.000001 -172.475000 8.305110 -173.312000 -39.081100 -0.002282 -0.040193 0.164126 -0.527510 16.952900 -40.985400 0.000008 0.000006 5.230070 0.580449 -72.636800 -11.754300 -0.000006 -0.000006 -0.011099 0.279344 -5.222070
0.000000 0.000000 0.000000 0.000000 0.000000 -0.000000 -2.932810 91.784900 0.084996 86.070900 1.062500 7.396340 15.735700 0.000005 -0.000001 90.546900 85.924700 -88.212700 8.984550 -0.406207 -0.000000 0.389923 -0.072377 4.665250 16.377300 -0.000001 -0.000001 10.927200 0.761566 -13.517000 6.456720 -0.000001 -0.000000 -7.541560 1.097540 -22.797200 12.994200 -0.242716 4.980390 -93.435500 8.688160 -68.326300 5.348090 -0.000007 -0.000001 -74.313500 0.360853 -12.242100 24.328600 0.000019 0.000005 35.395500 -37.706400 -130.721000 22.291600 -0.000001 0.000005 42.241700 5.094140 5.247460 12.994500 -0.242716 -4.980390 87.772200 6.078480 -69.827500 -5.348130 -0.000001 -0.000004 -68.133200 32.794500 -6.080300 -24.328900 0.000322 -0.000009 1.029690 3.536960 -16.258600 -22.291500 -0.000108 -0.000004 -2.181040 5.294400 0.229045 -2.192480 -6.469440 -0.000000 -175.694000 3.635740 0.226379 39.081100 -0.000007 -0.000012 0.368873 -0.705713 27.596800 40.985400 -0.000006 -0.000013 1.310670 4.639570 -76.334200 11.754300 -0.000000 0.000003 -0.000494 0.175568 -9.455410 -2.192510 6.469440 -0.000001 -172.434000 8.318440 -173.274000 -39.081100 -0.002282 -0.040193 0.168840 -0.542961 16.953300 -40.985400 0.000008 0.000006 5.415320 0.548476 -72.696200 -11.754300 -0.000006 -0.000006 -0.011872 0.284800 -4.998660
0.000000 0.000000 0.000000 0.000000 0.000000 -0.000000 -2.948310 91.786700 0.081996 86.072000 1.046960 7.391570 15.735700 0.000005 -0.000001 90.644600 85.893600 -88.300400 8.984550 -0.406207 -0.000000 0.451698 -0.057159 4.685330 16.377300 -0.000001 -0.000001 10.987800 0.740273 -13.469300 6.456720 -0.000001 -0.000000 -7.546110 1.106980 -22.778500 12.994200 -0.242716 4.980390 -93.443800 8.701830 -68.309200 5.348090 -0.000007 -0.000001 -74.296600 0.156876 -12.469600 24.328600 0.000019 0.000005 35.499700 -37.682000 -130.596000 22.291600 -0.000001 0.000005 42.031700 5.090750 5.324990 12.994500 -0.242716 -4.980390 87.751300 6.117610 -69.772500 -5.348130 -0.000001 -0.000004 -68.198200 32.924900 -5.982840 -24.328900 0.000322 -0.000009 0.998396 3.413930 -16.328400 -22.291500 -0.000108 -0.000004 -2.230960 5.293810 0.245355 -2.192480 -6.469440 -0.000000 -175.682000 3.629570 0.226182 39.081100 -0.000007 -0.000012 0.368414 -0.705138 27.586600 40.985400 -0.000006 -0.000013 1.293390 4.627790 -76.335000 11.754300 -0.000000 0.000003 -0.000371 0.173657 -9.533030 -2.192510 6.469440 -0.000001 -172.445000 8.360380 -173.283000 -39.081100 -0.002282 -0.040193 0.167632 -0.538883 16.956800 -40.985400 0.000008 0.000006 5.377750 0.652459 -72.657900 -11.754300 -0.000006 -0.000006 -0.011298 0.280764 -5.163920
0.000000 0.000000 0.000000 0.000000 0.000000 -0.000000 -2.971770 91.786200 0.076848 86.052300 1.029540 7.398090 15.735700 0.000005 -0.000001 90.605300 85.871300 -88.245000 8.984550 -0.406207 -0.000000 0.496670 -0.062411 4.717320 16.377300 -0.000001 -0.000001 11.057600 0.729007 -13.375100 6.456720 -0.000001 -0.000000 -7.475550 1.112730 -22.664100 12.994200 -0.242716 4.980390 -93.428700 8.643700 -68.265300 5.348090 -0.000007 -0.000001 -74.241700 0.111763 -12.512000 24.328600 0.000019 0.000005 35.698300 -37.650600 -130.369000 22.291600 -0.000001 0.000005 42.076100 5.077790 5.618110 12.994500 -0.242716 -4.980390 87.740400 6.143520 -69.760800 -5.348130 -0.000001 -0.000004 -68.316500 32.865800 -5.809120 -24.328900 0.000322 -0.000009 1.045670 3.585530 -16.285800 -22.291500 -0.000108 -0.000004 -2.276400 5.294890 0.215376 -2.192480 -6.469440 -0.000000 -175.644000 3.597510 0.218710 39.081100 -0.000007 -0.000012 0.369134 -0.705976 27.604600 40.985400 -0.000006 -0.000013 1.277430 4.626550 -76.333800 11.754300 -0.000000 0.000003 -0.000415 0.174334 -9.505550 -2.192510 6.469440 -0.000001 -172.439000 8.464660 -173.249000 -39.081100 -0.002282 -0.040193 0.166652 -0.537286 16.908600 -40.985400 0.000008 0.000006 5.454930 0.741855 -72.664600 -11.754300 -0.000006 -0.000006 -0.011488 0.282109 -5.108880
0.000000 0.000000 0.000000 0.000000 0.000000 -0.000000 -2.979530 91.799600 0.072942 86.093300 0.976191 7.347500 15.735700 0.000005 -0.000001 90.672600 85.859800 -88.316700 8.984550 -0.406207 -0.000000 0.519137 -0.051716 4.708470 16.377300 -0.000001 -0.000001 11.152600 0.727906 -13.285500 6.456720 -0.000001 -0.000000 -7.444350 1.109980 -22.525300 12.994200 -0.242716 4.980390 -93.450500 8.687030 -68.237500 5.348090 -0.000007 -0.000001 -74.102500 -0.121441 -12.590500 24.328600 0.000019 0.000005 35.301300 -37.200400 -130.493000 22.291600 -0.000001 0.000005 41.946900 5.075360 5.672580 12.994500 -0.242716 -4.980390 87.721900 6.184760 -69.733200 -5.348130 -0.000001 -0.000004 -68.399500 32.857100 -5.698530 -24.328900 0.000322 -0.000009 1.037250 3.596240 -16.116100 -22.291500 -0.000108 -0.000004 -2.263410 5.294710 0.220199 -2.192480 -6.469440 -0.000000 -175.680000 3.579850 0.229775 39.081100 -0.000007 -0.000012 0.367645 -0.706289 27.499200 40.985400 -0.000006 -0.000013 1.267580 4.610050 -76.302300 11.754300 -0.000000 0.000003 -0.000388 0.173920 -9.522340 -2.192510 6.469440 -0.000001 -172.499000 8.499840 -173.283000 -39.081100 -0.002282 -0.040193 0.164849 -0.532429 16.876400 -40.985400 0.000008 0.000006 5.424490 0.872421 -72.643500 -11.754300 -0.000006 -0.000006 -0.011287 0.280682 -5.167280
